<svg xmlns="http://www.w3.org/2000/svg" width="43.53" height="39.19" viewBox="0 0 43.53 39.19">
  <defs>
    <style>
      .cls-1 {
        fill: #0068b4;
        fill-rule: evenodd;
      }
    </style>
  </defs>
  <path id="_" data-name="" class="cls-1" d="M1811.55,4573.69a2.211,2.211,0,0,0-2.21,2.21v14.72a2.211,2.211,0,0,0,2.21,2.21h17.67a2.211,2.211,0,0,0,2.21-2.21V4575.9a2.211,2.211,0,0,0-2.21-2.21h-17.67Zm-7.42,5.51h-14.42a1.81,1.81,0,0,0-1.81,1.81v12.02a1.807,1.807,0,0,0,1.81,1.8h14.42a1.807,1.807,0,0,0,1.81-1.8v-12.02A1.81,1.81,0,0,0,1804.13,4579.2Zm-16.23,19.84v12.02a1.81,1.81,0,0,0,1.81,1.81h14.42a1.81,1.81,0,0,0,1.81-1.81v-12.02a1.8,1.8,0,0,0-1.81-1.8h-14.42A1.8,1.8,0,0,0,1787.9,4599.04Zm22.24,13.83h14.43a1.81,1.81,0,0,0,1.81-1.81v-12.02a1.8,1.8,0,0,0-1.81-1.8h-14.43a1.8,1.8,0,0,0-1.8,1.8v12.02A1.807,1.807,0,0,0,1810.14,4612.87Z" transform="translate(-1787.91 -4573.69)"/>
</svg>
